<svg width="400" height="400" version="1.1" viewBox="0 0 400 400" xml:space="preserve" xmlns="http://www.w3.org/2000/svg">
	<rect fill="#ec623d" width="100%" height="100%" />
	<path fill="#fff" d="m209.97 154.76a64.672 64.672 0 0 1-64.672 64.672 64.672 64.672 0 0 1-64.672-64.672 64.672 64.672 0 0 1 64.672-64.672 64.672 64.672 0 0 1 64.672 64.672zm-73.556-114.63c-0.47641 0.0137-0.95563 0.05879-1.4336 0.13672l-16.527 2.6895c-5.905 0.963-9.9152 6.5296-8.9512 12.434l2.2246 13.674c-7.6265 3.0098-14.808 7.0423-21.35 11.984l-10.516-9.0664c-4.531-3.907-11.371-3.3972-15.279 1.1348l-10.928 12.682c-3.484 4.042-3.4573 9.922-0.19531 13.918 0.397 0.483 0.83912 0.93928 1.3281 1.3633l10.498 9.043c-3.9105 7.2064-6.8244 14.91-8.6641 22.9l-13.875-0.18359c-5.98-0.077-10.895 4.7084-10.975 10.689l-0.21875 16.74c-0.03941 2.5452 0.82312 5.0224 2.4355 6.9922 2.025 2.4847 5.0469 3.9447 8.252 3.9863l13.863 0.18164c1.6254 8.0386 4.3415 15.818 8.0723 23.121l-10.738 8.7656c-4.633 3.785-5.3201 10.608-1.5371 15.242l10.592 12.969c3.782 4.632 10.61 5.3172 15.244 1.5332l10.736-8.7676c6.4105 5.1131 13.49 9.3255 21.041 12.521l-2.5859 13.623c-0.60303 3.1466 0.22343 6.3984 2.2559 8.875 1.6077 1.9718 3.8615 3.3124 6.3613 3.7852l16.449 3.123c5.882 1.117 11.55-2.7421 12.664-8.6191l2.5898-13.635c8.1961-0.20338 16.327-1.5214 24.168-3.918l6.7695 12.092c2.9238 5.2202 9.525 7.0848 14.748 4.166l14.605-8.1816c5.223-2.92 7.0862-9.5242 4.1602-14.74l-6.7812-12.115c6.1501-5.421 11.533-11.655 16-18.529l12.961 4.9102c5.592 2.118 11.846-0.69306 13.967-6.2891l5.9316-15.65c2.1256-5.5942-0.69049-11.853-6.2871-13.973l-12.977-4.918c1.2093-8.1071 1.3204-16.34 0.33008-24.477l13.094-4.5723c5.648-1.972 8.6312-8.1489 6.6582-13.797l-5.5176-15.807c-0.41621-1.1935-1.0375-2.3053-1.8359-3.2852-2.799-3.425-7.5449-4.915-11.961-3.373l-13.098 4.5762c-4.2865-6.9887-9.4944-13.369-15.486-18.965l7.0938-11.92c2.396-4.021 1.883-8.9665-0.91797-12.395-0.80116-0.9777-1.7685-1.808-2.8555-2.4531l-14.383-8.5645c-5.141-3.055-11.793-1.3725-14.848 3.7715l-7.0996 11.92c-7.7746-2.5975-15.863-4.1325-24.049-4.5645l-2.2285-13.695c-0.29867-1.875-1.09-3.6385-2.293-5.1074-2.1419-2.6275-5.3682-4.0783-8.7031-3.9824z">
		<animateTransform attributeName="transform" type="rotate" from="360 145 155" to="0 145 155" dur="20s" repeatCount="indefinite" />
	</path>
	<path fill="#fff" d="m209.33 272.36-0.156 11.922a7.713 7.713 0 0 0 7.611 7.818l9.873 0.129a64.09 64.09 0 0 0 5.748 16.465l-7.648 6.244a7.715 7.715 0 0 0-1.094 10.855l7.543 9.234c2.692 3.299 7.555 3.789 10.854 1.094l7.647-6.246a64.065 64.065 0 0 0 14.983 8.918l-1.842 9.701a7.692 7.692 0 0 0 1.608 6.322 7.671 7.671 0 0 0 4.529 2.694l11.715 2.226a7.711 7.711 0 0 0 9.018-6.14l1.845-9.709a64.386 64.386 0 0 0 17.211-2.789l4.821 8.611a7.721 7.721 0 0 0 10.502 2.965l10.402-5.826a7.71 7.71 0 0 0 2.963-10.497l-4.83-8.628a64.24 64.24 0 0 0 11.394-13.194l9.231 3.496a7.716 7.716 0 0 0 9.947-4.48l4.225-11.146a7.717 7.717 0 0 0-4.479-9.949l-9.239-3.502c0.858-5.758 0.94-11.625 0.233-17.432l9.324-3.256a7.714 7.714 0 0 0 4.743-9.826l-3.93-11.256a7.702 7.702 0 0 0-1.308-2.34 7.722 7.722 0 0 0-8.519-2.402l-9.326 3.258a64.851 64.851 0 0 0-11.031-13.504l5.051-8.49a7.711 7.711 0 0 0-0.651-8.826 7.75 7.75 0 0 0-2.032-1.747l-10.244-6.099c-3.661-2.176-8.397-0.979-10.573 2.686l-5.056 8.488a64.883 64.883 0 0 0-17.127-3.252l-1.587-9.752a7.713 7.713 0 0 0-8.852-6.376l-11.771 1.915a7.713 7.713 0 0 0-6.373 8.854l1.584 9.738a64.524 64.524 0 0 0-15.205 8.534l-7.487-6.457a7.715 7.715 0 0 0-10.881 0.809l-7.783 9.031a7.72 7.72 0 0 0 0.806 10.883l7.477 6.441a64.56 64.56 0 0 0-6.171 16.309l-9.881-0.131a7.717 7.717 0 0 0-7.812 7.612m50.458-29.837c20.328-16.604 50.373-13.574 66.979 6.752 16.603 20.33 13.576 50.373-6.752 66.979-20.329 16.604-50.375 13.576-66.98-6.752-16.605-20.329-13.576-50.374 6.753-66.979">
		<animateTransform attributeName="transform" type="rotate" from="0 291 280" to="360 291 280" dur="20s" repeatCount="indefinite" />
	</path>
</svg>
